<svg xmlns="http://www.w3.org/2000/svg" width="25" height="25" fill="none" id="채팅하기" size="24"><path stroke="#141313" stroke-linecap="round" stroke-linejoin="round" stroke-width="1.5" d="M20.797 12.2c0 1.639-.438 3.175-1.204 4.5l.46 3.035a.9.9 0 0 1-1.23.968l-2.526-.708a9 9 0 1 1 4.5-7.796" clip-rule="evenodd"></path><path fill="#141313" stroke="#141313" stroke-width="0.15" d="M8.864 12.2a1.075 1.075 0 1 0-2.15 0 1.075 1.075 0 0 0 2.15 0Zm4 0a1.075 1.075 0 1 0-2.15 0 1.075 1.075 0 0 0 2.15 0Zm4 0a1.075 1.075 0 1 0-2.15 0 1.075 1.075 0 0 0 2.15 0Z"></path></svg>