<svg width="10" height="10" viewBox="0 0 10 10" fill="none" xmlns="http://www.w3.org/2000/svg" class=""><g id="ico_location"><g id="Group 7574"><path id="Subtract" fill-rule="evenodd" clip-rule="evenodd" d="M0.500572 4.33686C0.461335 2.03812 2.44609 0.0664601 4.87009 0.00172047C7.41486 -0.0659179 9.5 1.86951 9.5 4.2668C9.5 5.53695 8.91145 6.67425 7.98201 7.45595L5.51062 9.79962C5.22883 10.0668 4.77124 10.0668 4.48945 9.79962L2.01755 7.45595C1.10543 6.68874 0.521464 5.57899 0.500572 4.33686ZM6.29884 3.7499C5.88477 3.03268 4.96724 2.7871 4.25008 3.2012C3.53291 3.61529 3.28683 4.53237 3.70141 5.2501C4.11548 5.96732 5.03249 6.2129 5.74966 5.7988C6.46734 5.38471 6.7129 4.46763 6.29884 3.7499Z" fill="#787E89"></path></g></g></svg>